<svg height="512" viewBox="0 0 57 61" width="512" xmlns="http://www.w3.org/2000/svg"><path d="M3 61h13a3 3 0 003-3V42.5a10.809 10.809 0 00-4-8.549c0-6.076 0-4.767-.013-5.062.432-.493.2-.17 2.62-4a4 4 0 00-1.244-5.518l3.206-5.071c2.665 1.685 2.841 1.913 3.6 1.913a2 2 0 001.694-.932l3.206-5.071a6 6 0 10-10.14-6.416l-3.208 5.072a2 2 0 00.623 2.759l2.535 1.6-3.206 5.075a4 4 0 00-5.519 1.243l-2.137 3.381a3 3 0 01-4.139.933 1 1 0 10-1.067 1.692l2.952 1.866A2.154 2.154 0 004 29v4.953A10.818 10.818 0 000 42.5V58a3 3 0 003 3zM19.619 4.863a4 4 0 016.761 4.275l-3.2 5.072-6.769-4.275zM8.708 23.993l2.138-3.381a2 2 0 012.754-.622l1.7 1.069a2 2 0 01.622 2.759c-2.128 3.364-2.183 3.553-2.674 4a2.96 2.96 0 01-3.6.317L6.261 26a4.967 4.967 0 002.447-2.007zm-.137 5.829a4.879 4.879 0 004.429.435V43a2 2 0 01-2 2H8a2 2 0 01-2-2V29.02c.149-.205.355-.361.592-.449zM2 42.5a9.105 9.105 0 012-5.78V43a4 4 0 004 4h3a4 4 0 004-4v-6.261a9.109 9.109 0 012 5.761V58a1 1 0 01-1 1H3a1 1 0 01-1-1z"/><path d="M5 55h9a1 1 0 000-2H5a1 1 0 000 2zM32.7 27.757c-3.948 7.536-11.281 24.609-6.756 31.9a2.941 2.941 0 002.5 1.343h24.112a2.941 2.941 0 002.5-1.338c4.523-7.293-2.823-24.4-6.756-31.9C51.274 9.386 51 11.138 51 10.975 50.975 8.559 47.3 6 40.5 6S30.025 8.559 30 10.975c0 .181-.113-.593 2.7 16.782zm20.66 30.851a.932.932 0 01-.8.392H28.444a.932.932 0 01-.8-.392C23.872 52.529 30.2 36.9 34.305 29H46.7c4.1 7.9 10.428 23.529 6.658 29.608zM40.5 8c5.841 0 8.388 2.053 8.5 2.942-1.08 6.62-.568 3.516-2.6 16.058h-7.532L36.99 13.858a1 1 0 00-1.98.284L36.847 27H34.6L32 10.942C32.112 10.053 34.659 8 40.5 8z"/><path d="M39.22 46c-3.133 0-4.982-1.512-6.752-3.6a1 1 0 00-1.787.284c-1.41 4.3-2.877 10.134-1.893 13.589a1 1 0 00.962.727h21.5a1 1 0 00.961-.724c.622-2.169.4-5.439-.636-9.21a4.187 4.187 0 00-1.981-2.834C46.8 42.782 42.864 46 39.22 46zm9.453.007c.524.377.874.95.973 1.587a19 19 0 01.8 7.406H30.56c-.317-2.176.216-5.728 1.507-10.054A9.847 9.847 0 0039.22 48c3.795 0 7.82-2.837 9.453-1.993z"/></svg>